<svg width="1600" height="840" viewBox="0 0 1600 840" fill="none" xmlns="http://www.w3.org/2000/svg">
<rect width="1600" height="840" fill="#00947E"/>
<path d="M290.073 153L137 309.9V514.423L290.073 676H521.809L679.134 514.423V309.9L521.809 153H290.073Z" fill="#F5F5F5"/>
<path d="M244.776 278.435C244.776 297.581 260.297 313.102 279.443 313.102C298.589 313.102 314.11 297.581 314.11 278.435C314.11 259.289 298.589 243.768 279.443 243.768C260.297 243.768 244.776 259.289 244.776 278.435ZM325.565 595.211C325.565 614.357 341.086 629.878 360.232 629.878C379.378 629.878 394.898 614.357 394.898 595.211C394.898 576.066 379.378 560.545 360.232 560.545C341.086 560.545 325.565 576.066 325.565 595.211ZM567.931 369.854C567.931 389 583.452 404.52 602.598 404.52C621.743 404.52 637.264 389 637.264 369.854C637.264 350.708 621.743 335.187 602.598 335.187C583.452 335.187 567.931 350.708 567.931 369.854ZM274.776 282.959L476.748 491.309L486.082 482.26L284.11 273.911L274.776 282.959ZM475.726 489.93C483.844 504.61 491.221 521.958 495.071 538.725C498.957 555.65 499.038 571.055 493.742 582.553C488.698 593.5 478.187 602.153 457.677 604.686C436.809 607.263 406.109 603.371 362.252 589.033L358.212 601.39C402.796 615.965 435.629 620.507 459.27 617.588C483.269 614.624 498.244 603.85 505.549 587.992C512.601 572.684 511.894 553.905 507.741 535.816C503.552 517.571 495.64 499.078 487.103 483.639L475.726 489.93ZM478.734 492.706C495.933 500.491 516.484 507.605 536.7 511.208C556.769 514.786 577.305 515.05 593.942 508.271C611.14 501.263 623.439 487.006 626.829 463.661C630.138 440.871 624.971 409.574 608.658 367.504L596.537 372.204C612.54 413.473 616.798 442.272 613.964 461.794C611.21 480.761 601.797 491.033 589.036 496.232C575.714 501.66 558.044 501.808 538.981 498.41C520.065 495.038 500.558 488.315 484.095 480.863L478.734 492.706Z" fill="#00947E"/>
<path d="M279.443 278.435C358.318 359.801 402.54 405.419 481.415 486.785M481.415 486.785C514.722 547.022 537.116 653.039 360.232 595.211M481.415 486.785C548.738 517.258 667.228 536.533 602.598 369.854" stroke="#00947E" stroke-width="39" stroke-linejoin="round"/>
<path d="M814.728 278.12H805.288C801.661 278.12 798.835 276.947 796.808 274.6C794.888 272.253 793.928 269.053 793.928 265H822.728C824.755 265 826.408 265.693 827.688 267.08C829.075 268.36 829.768 269.907 829.768 271.72V365.96C829.768 370.013 828.488 373.107 825.928 375.24C823.368 377.373 819.635 378.44 814.728 378.44V278.12ZM893.464 378.44C885.678 378.44 878.478 376.947 871.864 373.96C865.358 370.867 860.184 366.76 856.344 361.64C852.504 356.413 850.584 350.653 850.584 344.36V297.64C850.584 291.347 852.451 285.64 856.184 280.52C860.024 275.293 865.198 271.187 871.704 268.2C878.318 265.107 885.571 263.56 893.464 263.56C901.358 263.56 908.558 265.107 915.064 268.2C921.678 271.187 926.851 275.293 930.584 280.52C934.424 285.64 936.344 291.347 936.344 297.64V344.36C936.344 350.653 934.424 356.413 930.584 361.64C926.744 366.76 921.518 370.867 914.904 373.96C908.398 376.947 901.251 378.44 893.464 378.44ZM893.464 365C901.678 365 908.344 363.08 913.464 359.24C918.691 355.293 921.304 350.227 921.304 344.04V297.96C921.304 291.773 918.691 286.76 913.464 282.92C908.344 278.973 901.678 277 893.464 277C885.251 277 878.531 278.973 873.304 282.92C868.184 286.76 865.624 291.773 865.624 297.96V344.04C865.624 350.227 868.184 355.293 873.304 359.24C878.531 363.08 885.251 365 893.464 365ZM998.434 276.04C998.434 272.093 999.768 269.053 1002.43 266.92C1005.1 264.68 1008.78 263.56 1013.47 263.56L1052.19 356.52L1049.15 364.04L1050.27 364.52L1091.23 263.56C1095.93 263.56 1099.61 264.68 1102.27 266.92C1105.05 269.16 1106.43 272.253 1106.43 276.2V378.44C1096.51 378.44 1091.55 374.333 1091.55 366.12V298.76L1095.71 287.72L1094.43 287.4L1058.75 374.12C1058.22 375.4 1057.37 376.413 1056.19 377.16C1055.02 378.013 1053.79 378.44 1052.51 378.44C1051.13 378.44 1049.85 378.067 1048.67 377.32C1047.5 376.573 1046.65 375.507 1046.11 374.12L1010.43 287.24L1009.15 287.72L1013.31 298.6V366.12C1013.31 370.173 1012.03 373.267 1009.47 375.4C1007.02 377.427 1003.34 378.44 998.434 378.44V276.04ZM1139.46 283.56C1136.48 283.56 1133.97 282.6 1131.94 280.68C1129.92 278.76 1128.9 276.36 1128.9 273.48C1128.9 270.6 1129.92 268.253 1131.94 266.44C1133.97 264.52 1136.48 263.56 1139.46 263.56C1142.34 263.56 1144.8 264.52 1146.82 266.44C1148.85 268.253 1149.86 270.6 1149.86 273.48C1149.86 276.36 1148.85 278.76 1146.82 280.68C1144.8 282.6 1142.34 283.56 1139.46 283.56ZM1132.42 305.8C1132.42 302.28 1133.54 299.72 1135.78 298.12C1138.13 296.413 1141.65 295.56 1146.34 295.56V368.2C1146.34 371.72 1145.17 374.333 1142.82 376.04C1140.58 377.64 1137.12 378.44 1132.42 378.44V305.8ZM1172.34 307.4C1172.34 299.507 1176.82 295.56 1185.78 295.56V305.8C1184.82 306.76 1183.7 308.2 1182.42 310.12L1183.06 310.76C1186.26 306.28 1190.42 302.653 1195.54 299.88C1200.66 297 1206.21 295.56 1212.18 295.56C1220.82 295.56 1227.65 298.12 1232.66 303.24C1237.67 308.36 1240.18 314.973 1240.18 323.08V368.2C1240.18 371.72 1239.01 374.333 1236.66 376.04C1234.42 377.64 1230.95 378.44 1226.26 378.44V324.52C1226.26 319.4 1224.82 315.347 1221.94 312.36C1219.06 309.373 1214.69 307.88 1208.82 307.88C1204.87 307.88 1201.14 308.733 1197.62 310.44C1194.21 312.04 1191.43 314.28 1189.3 317.16C1187.27 319.933 1186.26 322.973 1186.26 326.28V368.2C1186.26 371.72 1185.09 374.333 1182.74 376.04C1180.5 377.64 1177.03 378.44 1172.34 378.44V307.4ZM1327.17 366.6C1327.17 374.493 1322.69 378.44 1313.73 378.44V368.2C1314.69 367.24 1315.81 365.8 1317.09 363.88L1316.45 363.24C1313.25 367.827 1309.2 371.507 1304.29 374.28C1299.49 377.053 1294.21 378.44 1288.45 378.44C1282.69 378.44 1277.57 377.213 1273.09 374.76C1268.72 372.307 1265.31 368.893 1262.85 364.52C1260.51 360.147 1259.33 355.24 1259.33 349.8V305.8C1259.33 302.28 1260.51 299.72 1262.85 298.12C1265.2 296.413 1268.72 295.56 1273.41 295.56V349.16C1273.41 354.28 1274.91 358.387 1277.89 361.48C1280.99 364.573 1285.52 366.12 1291.49 366.12C1295.44 366.12 1299.07 365.32 1302.37 363.72C1305.68 362.013 1308.29 359.773 1310.21 357C1312.24 354.12 1313.25 351.027 1313.25 347.72V305.8C1313.25 302.28 1314.37 299.72 1316.61 298.12C1318.96 296.413 1322.48 295.56 1327.17 295.56V366.6ZM1381.37 378.44C1373.79 378.44 1368.14 376.307 1364.41 372.04C1360.67 367.667 1358.81 361.96 1358.81 354.92V308.2H1343.93C1343.93 304.573 1344.73 301.8 1346.33 299.88C1347.93 297.96 1350.11 297 1352.89 297H1358.97V281.8C1358.97 278.28 1360.09 275.72 1362.33 274.12C1364.67 272.413 1368.14 271.56 1372.73 271.56V297H1394.01C1394.01 304.467 1390.65 308.2 1383.93 308.2H1372.89V354.44C1372.89 358.707 1373.63 361.747 1375.13 363.56C1376.73 365.267 1379.55 366.12 1383.61 366.12C1387.34 366.12 1390.86 365.16 1394.17 363.24C1395.55 364.627 1396.25 366.493 1396.25 368.84C1396.25 371.4 1394.91 373.64 1392.25 375.56C1389.58 377.48 1385.95 378.44 1381.37 378.44ZM1445.28 378.44C1438.78 378.44 1432.96 377.213 1427.84 374.76C1422.72 372.2 1418.72 368.733 1415.84 364.36C1412.96 359.88 1411.52 354.867 1411.52 349.32V325.64C1411.52 319.987 1413.02 314.867 1416 310.28C1419.1 305.693 1423.2 302.12 1428.32 299.56C1433.55 296.893 1439.2 295.56 1445.28 295.56C1451.36 295.56 1456.91 296.84 1461.92 299.4C1467.04 301.96 1471.04 305.48 1473.92 309.96C1476.91 314.44 1478.4 319.507 1478.4 325.16V335.4C1478.4 337.107 1477.76 338.547 1476.48 339.72C1475.2 340.893 1473.66 341.48 1471.84 341.48H1425.12V348.68C1425.12 354.12 1426.83 358.493 1430.24 361.8C1433.76 365.107 1438.78 366.76 1445.28 366.76C1451.79 366.76 1456.75 365.32 1460.16 362.44C1463.58 359.56 1465.28 355.667 1465.28 350.76C1468.48 350.547 1471.15 351.187 1473.28 352.68C1475.52 354.067 1476.64 356.147 1476.64 358.92C1476.64 362.333 1475.15 365.533 1472.16 368.52C1469.28 371.507 1465.44 373.907 1460.64 375.72C1455.84 377.533 1450.72 378.44 1445.28 378.44ZM1465.44 330.6V325.16C1465.44 319.827 1463.58 315.507 1459.84 312.2C1456.22 308.787 1451.36 307.08 1445.28 307.08C1439.2 307.08 1434.3 308.787 1430.56 312.2C1426.94 315.507 1425.12 319.827 1425.12 325.16V330.6H1465.44ZM828.903 449.04C828.903 447.013 829.65 445.36 831.143 444.08C832.636 442.693 834.45 442 836.583 442H907.463C907.463 446.48 906.556 449.787 904.743 451.92C902.93 454.053 900.103 455.12 896.263 455.12H843.943V490.96H888.743C888.743 495.44 887.836 498.747 886.023 500.88C884.21 503.013 881.436 504.08 877.703 504.08H843.943V540.88H899.623C903.356 540.88 906.13 541.947 907.943 544.08C909.756 546.213 910.663 549.52 910.663 554H836.583C834.45 554 832.636 553.36 831.143 552.08C829.65 550.693 828.903 548.987 828.903 546.96V449.04ZM929.059 484.4C929.059 476.507 933.539 472.56 942.499 472.56V482.8C941.539 483.76 940.419 485.2 939.139 487.12L939.779 487.76C942.979 483.28 947.139 479.653 952.259 476.88C957.379 474 962.926 472.56 968.899 472.56C977.539 472.56 984.366 475.12 989.379 480.24C994.393 485.36 996.899 491.973 996.899 500.08V545.2C996.899 548.72 995.726 551.333 993.379 553.04C991.139 554.64 987.673 555.44 982.979 555.44V501.52C982.979 496.4 981.539 492.347 978.659 489.36C975.779 486.373 971.406 484.88 965.539 484.88C961.593 484.88 957.859 485.733 954.339 487.44C950.926 489.04 948.153 491.28 946.019 494.16C943.993 496.933 942.979 499.973 942.979 503.28V545.2C942.979 548.72 941.806 551.333 939.459 553.04C937.219 554.64 933.753 555.44 929.059 555.44V484.4ZM1046.93 555.44C1037.76 555.44 1030.29 552.933 1024.53 547.92C1018.88 542.8 1016.05 536.027 1016.05 527.6V500.24C1016.05 494.8 1017.39 490 1020.05 485.84C1022.72 481.573 1026.4 478.32 1031.09 476.08C1035.89 473.733 1041.39 472.56 1047.57 472.56C1052.59 472.56 1057.23 473.627 1061.49 475.76C1065.76 477.787 1069.49 480.507 1072.69 483.92L1073.17 483.12C1072.43 482.053 1071.31 480.88 1069.81 479.6V451.44C1069.81 447.92 1070.99 445.253 1073.33 443.44C1075.68 441.52 1079.2 440.56 1083.89 440.56V544.08C1083.89 547.6 1082.83 550.373 1080.69 552.4C1078.67 554.427 1075.36 555.44 1070.77 555.44V546.48C1072.27 544.56 1073.28 543.173 1073.81 542.32L1073.33 541.68C1069.92 545.947 1066.13 549.307 1061.97 551.76C1057.81 554.213 1052.8 555.44 1046.93 555.44ZM1049.97 543.12C1055.63 543.12 1060.37 541.68 1064.21 538.8C1068.05 535.813 1069.97 532.133 1069.97 527.76V500.08C1069.97 495.813 1068.16 492.24 1064.53 489.36C1060.91 486.373 1056 484.88 1049.81 484.88C1043.52 484.88 1038.61 486.32 1035.09 489.2C1031.68 491.973 1029.97 495.867 1029.97 500.88V526.96C1029.97 532.187 1031.68 536.187 1035.09 538.96C1038.61 541.733 1043.57 543.12 1049.97 543.12ZM1106.25 483.92C1106.25 480.4 1107.31 477.627 1109.45 475.6C1111.69 473.573 1115.05 472.56 1119.53 472.56V481.52L1116.33 485.68L1116.81 486.32C1120.11 482.053 1123.9 478.693 1128.17 476.24C1132.43 473.787 1137.5 472.56 1143.37 472.56C1152.54 472.56 1159.95 475.12 1165.61 480.24C1171.26 485.253 1174.09 491.973 1174.09 500.4V527.76C1174.09 536.187 1171.15 542.907 1165.29 547.92C1159.42 552.933 1151.79 555.44 1142.41 555.44C1137.39 555.44 1132.75 554.427 1128.49 552.4C1124.33 550.267 1120.65 547.493 1117.45 544.08L1116.97 544.88C1117.71 545.947 1118.83 547.12 1120.33 548.4V576.56C1120.33 583.813 1115.63 587.44 1106.25 587.44V483.92ZM1140.33 543.12C1146.62 543.12 1151.53 541.733 1155.05 538.96C1158.57 536.08 1160.33 532.133 1160.33 527.12V501.04C1160.33 495.813 1158.57 491.813 1155.05 489.04C1151.53 486.267 1146.57 484.88 1140.17 484.88C1134.51 484.88 1129.77 486.373 1125.93 489.36C1122.09 492.24 1120.17 495.867 1120.17 500.24V527.92C1120.17 532.187 1121.98 535.813 1125.61 538.8C1129.23 541.68 1134.14 543.12 1140.33 543.12ZM1222.9 555.44C1216.39 555.44 1210.47 554.213 1205.14 551.76C1199.91 549.307 1195.8 546 1192.82 541.84C1189.94 537.573 1188.5 532.827 1188.5 527.6V501.36C1188.5 496.027 1189.94 491.173 1192.82 486.8C1195.8 482.427 1199.91 478.96 1205.14 476.4C1210.36 473.84 1216.28 472.56 1222.9 472.56C1229.51 472.56 1235.43 473.84 1240.66 476.4C1245.99 478.96 1250.1 482.427 1252.98 486.8C1255.96 491.173 1257.46 496.027 1257.46 501.36V527.6C1257.46 532.827 1255.96 537.573 1252.98 541.84C1249.99 546 1245.88 549.307 1240.66 551.76C1235.43 554.213 1229.51 555.44 1222.9 555.44ZM1222.9 543.44C1229.3 543.44 1234.36 541.947 1238.1 538.96C1241.94 535.867 1243.86 531.867 1243.86 526.96V501.84C1243.86 496.72 1241.94 492.56 1238.1 489.36C1234.36 486.16 1229.3 484.56 1222.9 484.56C1216.6 484.56 1211.54 486.16 1207.7 489.36C1203.86 492.56 1201.94 496.72 1201.94 501.84V526.96C1201.94 531.867 1203.8 535.867 1207.54 538.96C1211.38 541.947 1216.5 543.44 1222.9 543.44ZM1282.43 460.56C1279.45 460.56 1276.94 459.6 1274.91 457.68C1272.89 455.76 1271.87 453.36 1271.87 450.48C1271.87 447.6 1272.89 445.253 1274.91 443.44C1276.94 441.52 1279.45 440.56 1282.43 440.56C1285.31 440.56 1287.77 441.52 1289.79 443.44C1291.82 445.253 1292.83 447.6 1292.83 450.48C1292.83 453.36 1291.82 455.76 1289.79 457.68C1287.77 459.6 1285.31 460.56 1282.43 460.56ZM1275.39 482.8C1275.39 479.28 1276.51 476.72 1278.75 475.12C1281.1 473.413 1284.62 472.56 1289.31 472.56V545.2C1289.31 548.72 1288.14 551.333 1285.79 553.04C1283.55 554.64 1280.09 555.44 1275.39 555.44V482.8ZM1315.31 484.4C1315.31 476.507 1319.79 472.56 1328.75 472.56V482.8C1327.79 483.76 1326.67 485.2 1325.39 487.12L1326.03 487.76C1329.23 483.28 1333.39 479.653 1338.51 476.88C1343.63 474 1349.18 472.56 1355.15 472.56C1363.79 472.56 1370.62 475.12 1375.63 480.24C1380.64 485.36 1383.15 491.973 1383.15 500.08V545.2C1383.15 548.72 1381.98 551.333 1379.63 553.04C1377.39 554.64 1373.92 555.44 1369.23 555.44V501.52C1369.23 496.4 1367.79 492.347 1364.91 489.36C1362.03 486.373 1357.66 484.88 1351.79 484.88C1347.84 484.88 1344.11 485.733 1340.59 487.44C1337.18 489.04 1334.4 491.28 1332.27 494.16C1330.24 496.933 1329.23 499.973 1329.23 503.28V545.2C1329.23 548.72 1328.06 551.333 1325.71 553.04C1323.47 554.64 1320 555.44 1315.31 555.44V484.4ZM1435.74 555.44C1428.17 555.44 1422.52 553.307 1418.78 549.04C1415.05 544.667 1413.18 538.96 1413.18 531.92V485.2H1398.3C1398.3 481.573 1399.1 478.8 1400.7 476.88C1402.3 474.96 1404.49 474 1407.26 474H1413.34V458.8C1413.34 455.28 1414.46 452.72 1416.7 451.12C1419.05 449.413 1422.52 448.56 1427.1 448.56V474H1448.38C1448.38 481.467 1445.02 485.2 1438.3 485.2H1427.26V531.44C1427.26 535.707 1428.01 538.747 1429.5 540.56C1431.1 542.267 1433.93 543.12 1437.98 543.12C1441.72 543.12 1445.24 542.16 1448.54 540.24C1449.93 541.627 1450.62 543.493 1450.62 545.84C1450.62 548.4 1449.29 550.64 1446.62 552.56C1443.96 554.48 1440.33 555.44 1435.74 555.44Z" fill="#F5F5F5"/>
</svg>
