<svg width="1200" height="630" viewBox="0 0 1200 630" fill="none" xmlns="http://www.w3.org/2000/svg">
<mask id="mask0_7_151" style="mask-type:alpha" maskUnits="userSpaceOnUse" x="0" y="0" width="1200" height="630">
<rect width="1200" height="630" rx="5" fill="#00947E"/>
</mask>
<g mask="url(#mask0_7_151)">
<rect width="1200" height="630" rx="5" fill="#00947E"/>
<rect x="472.29" y="326.685" width="552.75" height="458.25" rx="23" transform="rotate(-13.54 472.29 326.685)" fill="#EBFFFC"/>
<rect x="515.037" y="452.936" width="526.5" height="310.5" rx="22" transform="rotate(-13.54 515.037 452.936)" fill="white"/>
<rect x="939.437" y="241.96" width="51" height="28.5" rx="8" transform="rotate(-13.54 939.437 241.96)" fill="#3E8ED0"/>
<rect x="952.08" y="294.459" width="51" height="28.5" rx="8" transform="rotate(-13.54 952.08 294.459)" fill="#00D1B2"/>
<rect x="563.571" y="519.935" width="230.25" height="33.75" transform="rotate(-13.54 563.571 519.935)" stroke="black" stroke-width="3"/>
<rect x="788.151" y="465.852" width="230.25" height="33.75" transform="rotate(-13.54 788.151 465.852)" stroke="black" stroke-width="3"/>
<rect x="579.726" y="587.017" width="230.25" height="33.75" transform="rotate(-13.54 579.726 587.017)" stroke="black" stroke-width="3"/>
<rect x="804.306" y="532.934" width="230.25" height="33.75" transform="rotate(-13.54 804.306 532.934)" stroke="black" stroke-width="3"/>
<rect x="595.881" y="654.099" width="230.25" height="33.75" transform="rotate(-13.54 595.881 654.099)" stroke="black" stroke-width="3"/>
<rect x="820.46" y="600.017" width="230.25" height="33.75" transform="rotate(-13.54 820.46 600.017)" stroke="black" stroke-width="3"/>
<rect x="571.649" y="553.476" width="230.25" height="33.75" transform="rotate(-13.54 571.649 553.476)" stroke="black" stroke-width="3"/>
<rect x="796.228" y="499.394" width="230.25" height="33.75" transform="rotate(-13.54 796.228 499.394)" stroke="black" stroke-width="3"/>
<rect x="587.803" y="620.558" width="230.25" height="33.75" transform="rotate(-13.54 587.803 620.558)" stroke="black" stroke-width="3"/>
<rect x="812.383" y="566.476" width="230.25" height="33.75" transform="rotate(-13.54 812.383 566.476)" stroke="black" stroke-width="3"/>
<rect x="828.538" y="633.558" width="230.25" height="33.75" transform="rotate(-13.54 828.538 633.558)" stroke="black" stroke-width="3"/>
<rect x="574.077" y="525.119" width="68.25" height="19.5" rx="9.75" transform="rotate(-13.54 574.077 525.119)" fill="#888585" fill-opacity="0.54"/>
<rect x="550.322" y="474.525" width="141.75" height="30" rx="11" transform="rotate(-13.54 550.322 474.525)" fill="#888585" fill-opacity="0.54"/>
<rect x="803.761" y="469.808" width="93" height="19.5" rx="9.75" transform="rotate(-13.54 803.761 469.808)" fill="#888585" fill-opacity="0.54"/>
<rect x="811.838" y="503.349" width="70.5" height="19.5" rx="9.75" transform="rotate(-13.54 811.838 503.349)" fill="#8F6262" fill-opacity="0.5"/>
<rect x="819.916" y="536.89" width="52.5" height="19.5" rx="9.75" transform="rotate(-13.54 819.916 536.89)" fill="#8F6262" fill-opacity="0.5"/>
<rect x="827.993" y="570.431" width="79.5" height="19.5" rx="9.75" transform="rotate(-13.54 827.993 570.431)" fill="#8F6262" fill-opacity="0.5"/>
<rect x="836.07" y="603.972" width="103.5" height="19.5" rx="9.75" transform="rotate(-13.54 836.07 603.972)" fill="#8F6262" fill-opacity="0.5"/>
<rect x="844.147" y="637.513" width="70.5" height="19.5" rx="9.75" transform="rotate(-13.54 844.147 637.513)" fill="#8F6262" fill-opacity="0.5"/>
<rect x="582.155" y="558.661" width="47.25" height="19.5" rx="9.75" transform="rotate(-13.54 582.155 558.661)" fill="#888585" fill-opacity="0.28"/>
<rect x="947.756" y="247.671" width="37.5" height="13.5" rx="6.75" transform="rotate(-13.54 947.756 247.671)" fill="white" fill-opacity="0.35"/>
<rect x="960.398" y="300.17" width="37.5" height="13.5" rx="6.75" transform="rotate(-13.54 960.398 300.17)" fill="white" fill-opacity="0.57"/>
<rect x="590.232" y="592.201" width="132.75" height="19.5" rx="9.75" transform="rotate(-13.54 590.232 592.201)" fill="#888585" fill-opacity="0.28"/>
<rect x="514.911" y="404.365" width="132.75" height="19.5" rx="9.75" transform="rotate(-13.54 514.911 404.365)" fill="#888585" fill-opacity="0.28"/>
<rect x="501.215" y="347.491" width="417.75" height="31.5" rx="11" transform="rotate(-13.54 501.215 347.491)" fill="#888585" fill-opacity="0.67"/>
<rect x="845.948" y="324.646" width="77.25" height="19.5" rx="9.75" transform="rotate(-13.54 845.948 324.646)" fill="#888585" fill-opacity="0.28"/>
<rect x="598.309" y="625.743" width="68.25" height="19.5" rx="9.75" transform="rotate(-13.54 598.309 625.743)" fill="#888585" fill-opacity="0.28"/>
<g filter="url(#filter0_d_7_151)">
<path d="M190.431 175.081L104.171 263.497C103.26 264.431 102.75 265.684 102.75 266.989V382.08C102.75 383.359 103.24 384.59 104.12 385.519L190.424 476.617C191.368 477.614 192.681 478.178 194.054 478.178H324.76C326.11 478.178 327.401 477.633 328.343 476.666L417.082 385.528C417.991 384.595 418.5 383.343 418.5 382.04V267.029C418.5 265.701 417.971 264.427 417.031 263.489L328.334 175.032C327.397 174.097 326.127 173.572 324.803 173.572H194.01C192.663 173.572 191.372 174.116 190.431 175.081Z" fill="#F5F5F5"/>
<path d="M159.045 246.628C159.045 261.356 170.984 273.295 185.712 273.295C200.44 273.295 212.379 261.356 212.379 246.628C212.379 231.9 200.44 219.961 185.712 219.961C170.984 219.961 159.045 231.9 159.045 246.628ZM206.098 431.125C206.098 445.853 218.037 457.792 232.765 457.792C247.492 457.792 259.432 445.853 259.432 431.125C259.432 416.397 247.492 404.458 232.765 404.458C218.037 404.458 206.098 416.397 206.098 431.125ZM347.257 299.872C347.257 314.6 359.196 326.539 373.924 326.539C388.651 326.539 400.59 314.6 400.59 299.872C400.59 285.144 388.651 273.205 373.924 273.205C359.196 273.205 347.257 285.144 347.257 299.872ZM182.122 250.108L299.754 371.455L306.934 364.495L189.302 243.148L182.122 250.108ZM298.969 370.394C303.657 378.874 307.904 388.87 310.114 398.498C312.353 408.247 312.342 416.903 309.421 423.244C306.695 429.162 300.99 434.003 289.37 435.438C277.475 436.907 259.794 434.701 234.319 426.373L231.211 435.877C257.246 444.389 276.568 447.095 290.596 445.362C304.899 443.596 314.037 437.123 318.503 427.428C322.774 418.157 322.305 406.904 319.861 396.26C317.389 385.496 312.731 374.618 307.72 365.556L298.969 370.394ZM301.282 372.53C311.368 377.095 323.435 381.275 335.33 383.395C347.113 385.496 359.341 385.688 369.341 381.614C379.772 377.363 387.205 368.688 389.238 354.682C391.21 341.103 388.115 322.642 378.585 298.064L369.262 301.68C378.553 325.641 380.948 342.181 379.342 353.245C377.797 363.883 372.585 369.494 365.567 372.353C358.118 375.388 348.094 375.513 337.085 373.551C326.189 371.608 314.926 367.729 305.406 363.42L301.282 372.53Z" fill="#00947E"/>
<path d="M185.712 246.628C231.65 294.017 257.406 320.586 303.344 367.975M303.344 367.975C322.743 403.058 335.786 464.805 232.765 431.125M303.344 367.975C342.555 385.723 411.566 396.95 373.924 299.872" stroke="#00947E" stroke-width="32" stroke-linejoin="round"/>
</g>
<g filter="url(#filter1_d_7_151)">
<path d="M466.32 88.044C466.32 86.1693 466.953 84.7253 468.22 83.712C469.487 82.648 471.235 82.116 473.464 82.116L491.856 126.272L490.412 129.844L490.944 130.072L510.4 82.116C512.629 82.116 514.377 82.648 515.644 83.712C516.961 84.776 517.62 86.2453 517.62 88.12V136.684C512.908 136.684 510.552 134.733 510.552 130.832V98.836L512.528 93.592L511.92 93.44L494.972 134.632C494.719 135.24 494.313 135.721 493.756 136.076C493.199 136.481 492.616 136.684 492.008 136.684C491.349 136.684 490.741 136.507 490.184 136.152C489.627 135.797 489.221 135.291 488.968 134.632L472.02 93.364L471.412 93.592L473.388 98.76V130.832C473.388 132.757 472.78 134.227 471.564 135.24C470.399 136.203 468.651 136.684 466.32 136.684V88.044ZM540.909 136.684C536.551 136.684 533.03 135.519 530.345 133.188C527.71 130.857 526.393 127.792 526.393 123.992C526.393 120.141 527.786 117.051 530.573 114.72C533.359 112.339 537.033 111.148 541.593 111.148C546.457 111.148 550.459 112.871 553.601 116.316L553.905 116.012C553.347 115.404 552.714 114.771 552.005 114.112V110.92C552.005 108.336 551.194 106.335 549.573 104.916C547.951 103.497 545.646 102.788 542.657 102.788C537.337 102.788 533.537 104.891 531.257 109.096C530.446 108.691 529.762 108.159 529.205 107.5C528.698 106.791 528.445 106.081 528.445 105.372C528.445 104.004 529.129 102.712 530.497 101.496C531.865 100.229 533.663 99.216 535.893 98.456C538.173 97.696 540.554 97.316 543.037 97.316C547.85 97.316 551.625 98.5067 554.361 100.888C557.147 103.269 558.541 106.563 558.541 110.768V131.592C558.541 133.365 558.034 134.657 557.021 135.468C556.007 136.279 554.411 136.684 552.233 136.684V133.112C553.297 131.997 553.879 131.339 553.981 131.136L553.677 130.832C550.383 134.733 546.127 136.684 540.909 136.684ZM542.049 131.44C545.19 131.44 547.647 130.781 549.421 129.464C551.245 128.147 552.157 126.323 552.157 123.992C552.157 121.661 551.27 119.812 549.497 118.444C547.723 117.076 545.291 116.392 542.201 116.392C539.313 116.392 537.033 117.076 535.361 118.444C533.739 119.761 532.929 121.611 532.929 123.992C532.929 126.373 533.714 128.223 535.285 129.54C536.906 130.807 539.161 131.44 542.049 131.44ZM600.432 135.012C600.027 135.519 599.52 135.924 598.912 136.228C598.304 136.532 597.62 136.684 596.86 136.684C596.049 136.684 595.34 136.532 594.732 136.228C594.124 135.924 593.567 135.367 593.06 134.556L580.976 115.632L575.352 120.648V131.896C575.352 135.088 573.173 136.684 568.816 136.684V87.588C568.816 83.94 571.02 82.116 575.428 82.116L575.352 113.884L593.744 97.392C595.213 98.76 595.948 99.9253 595.948 100.888C595.948 101.597 595.771 102.18 595.416 102.636C595.112 103.041 594.504 103.649 593.592 104.46L585.08 111.984L600.432 135.012ZM614.578 91.616C613.16 91.616 611.969 91.16 611.006 90.248C610.044 89.336 609.562 88.196 609.562 86.828C609.562 85.46 610.044 84.3453 611.006 83.484C611.969 82.572 613.16 82.116 614.578 82.116C615.946 82.116 617.112 82.572 618.074 83.484C619.037 84.3453 619.518 85.46 619.518 86.828C619.518 88.196 619.037 89.336 618.074 90.248C617.112 91.16 615.946 91.616 614.578 91.616ZM611.234 102.18C611.234 100.508 611.766 99.292 612.83 98.532C613.945 97.7213 615.617 97.316 617.846 97.316V131.82C617.846 133.492 617.289 134.733 616.174 135.544C615.11 136.304 613.464 136.684 611.234 136.684V102.18ZM630.195 102.94C630.195 99.1907 632.323 97.316 636.579 97.316V102.18C636.123 102.636 635.591 103.32 634.983 104.232L635.287 104.536C636.807 102.408 638.783 100.685 641.215 99.368C643.647 98 646.282 97.316 649.119 97.316C653.223 97.316 656.466 98.532 658.847 100.964C661.228 103.396 662.419 106.537 662.419 110.388V131.82C662.419 133.492 661.862 134.733 660.747 135.544C659.683 136.304 658.036 136.684 655.807 136.684V111.072C655.807 108.64 655.123 106.715 653.755 105.296C652.387 103.877 650.31 103.168 647.523 103.168C645.648 103.168 643.875 103.573 642.203 104.384C640.582 105.144 639.264 106.208 638.251 107.576C637.288 108.893 636.807 110.337 636.807 111.908V131.82C636.807 133.492 636.25 134.733 635.135 135.544C634.071 136.304 632.424 136.684 630.195 136.684V102.94ZM687.401 151.884C684.766 151.884 682.309 151.453 680.029 150.592C677.749 149.731 675.95 148.565 674.633 147.096C673.316 145.677 672.657 144.132 672.657 142.46C672.657 141.143 673.088 140.18 673.949 139.572C674.861 138.964 676.077 138.66 677.597 138.66C677.698 141.041 678.61 142.916 680.333 144.284C682.106 145.703 684.462 146.412 687.401 146.412C693.886 146.412 697.129 143.271 697.129 136.988V132.58C697.838 131.972 698.37 131.415 698.725 130.908L698.497 130.528C697.028 132.099 695.178 133.391 692.949 134.404C690.77 135.417 688.566 135.924 686.337 135.924C681.98 135.924 678.408 134.733 675.621 132.352C672.885 129.92 671.517 126.728 671.517 122.776V110.54C671.517 107.956 672.15 105.676 673.417 103.7C674.734 101.673 676.508 100.103 678.737 98.988C681.017 97.8733 683.525 97.316 686.261 97.316C691.226 97.316 695.381 99.4947 698.725 103.852L699.029 103.548L697.509 101.648C697.509 100.229 697.99 99.1653 698.953 98.456C699.966 97.696 701.588 97.316 703.817 97.316V136.304C703.817 139.344 703.108 142.029 701.689 144.36C700.321 146.741 698.396 148.591 695.913 149.908C693.43 151.225 690.593 151.884 687.401 151.884ZM687.553 130.148C690.238 130.148 692.518 129.439 694.393 128.02C696.268 126.551 697.205 124.828 697.205 122.852V110.464C697.205 108.387 696.268 106.639 694.393 105.22C692.569 103.801 690.34 103.092 687.705 103.092C684.665 103.092 682.309 103.776 680.637 105.144C678.965 106.461 678.129 108.361 678.129 110.844V122.472C678.129 124.853 678.94 126.728 680.561 128.096C682.233 129.464 684.564 130.148 687.553 130.148ZM741.247 89.032H736.763C735.04 89.032 733.698 88.4747 732.735 87.36C731.823 86.2453 731.367 84.7253 731.367 82.8H745.047C746.01 82.8 746.795 83.1293 747.403 83.788C748.062 84.396 748.391 85.1307 748.391 85.992V130.756C748.391 132.681 747.783 134.151 746.567 135.164C745.351 136.177 743.578 136.684 741.247 136.684V89.032ZM778.647 136.684C774.948 136.684 771.528 135.975 768.387 134.556C765.296 133.087 762.839 131.136 761.015 128.704C759.191 126.221 758.279 123.485 758.279 120.496V98.304C758.279 95.3147 759.165 92.604 760.939 90.172C762.763 87.6893 765.22 85.7387 768.311 84.32C771.452 82.8507 774.897 82.116 778.647 82.116C782.396 82.116 785.816 82.8507 788.907 84.32C792.048 85.7387 794.505 87.6893 796.279 90.172C798.103 92.604 799.015 95.3147 799.015 98.304V120.496C799.015 123.485 798.103 126.221 796.279 128.704C794.455 131.136 791.972 133.087 788.831 134.556C785.74 135.975 782.345 136.684 778.647 136.684ZM778.647 130.3C782.548 130.3 785.715 129.388 788.147 127.564C790.629 125.689 791.871 123.283 791.871 120.344V98.456C791.871 95.5173 790.629 93.136 788.147 91.312C785.715 89.4373 782.548 88.5 778.647 88.5C774.745 88.5 771.553 89.4373 769.071 91.312C766.639 93.136 765.423 95.5173 765.423 98.456V120.344C765.423 123.283 766.639 125.689 769.071 127.564C771.553 129.388 774.745 130.3 778.647 130.3ZM828.508 88.044C828.508 86.1693 829.141 84.7253 830.408 83.712C831.674 82.648 833.422 82.116 835.652 82.116L854.044 126.272L852.6 129.844L853.132 130.072L872.588 82.116C874.817 82.116 876.565 82.648 877.832 83.712C879.149 84.776 879.808 86.2453 879.808 88.12V136.684C875.096 136.684 872.74 134.733 872.74 130.832V98.836L874.716 93.592L874.108 93.44L857.16 134.632C856.906 135.24 856.501 135.721 855.944 136.076C855.386 136.481 854.804 136.684 854.196 136.684C853.537 136.684 852.929 136.507 852.372 136.152C851.814 135.797 851.409 135.291 851.156 134.632L834.208 93.364L833.6 93.592L835.576 98.76V130.832C835.576 132.757 834.968 134.227 833.752 135.24C832.586 136.203 830.838 136.684 828.508 136.684V88.044ZM895.496 91.616C894.077 91.616 892.887 91.16 891.924 90.248C890.961 89.336 890.48 88.196 890.48 86.828C890.48 85.46 890.961 84.3453 891.924 83.484C892.887 82.572 894.077 82.116 895.496 82.116C896.864 82.116 898.029 82.572 898.992 83.484C899.955 84.3453 900.436 85.46 900.436 86.828C900.436 88.196 899.955 89.336 898.992 90.248C898.029 91.16 896.864 91.616 895.496 91.616ZM892.152 102.18C892.152 100.508 892.684 99.292 893.748 98.532C894.863 97.7213 896.535 97.316 898.764 97.316V131.82C898.764 133.492 898.207 134.733 897.092 135.544C896.028 136.304 894.381 136.684 892.152 136.684V102.18ZM911.113 102.94C911.113 99.1907 913.241 97.316 917.497 97.316V102.18C917.041 102.636 916.509 103.32 915.901 104.232L916.205 104.536C917.725 102.408 919.701 100.685 922.133 99.368C924.565 98 927.2 97.316 930.037 97.316C934.141 97.316 937.384 98.532 939.765 100.964C942.146 103.396 943.337 106.537 943.337 110.388V131.82C943.337 133.492 942.78 134.733 941.665 135.544C940.601 136.304 938.954 136.684 936.725 136.684V111.072C936.725 108.64 936.041 106.715 934.673 105.296C933.305 103.877 931.228 103.168 928.441 103.168C926.566 103.168 924.793 103.573 923.121 104.384C921.5 105.144 920.182 106.208 919.169 107.576C918.206 108.893 917.725 110.337 917.725 111.908V131.82C917.725 133.492 917.168 134.733 916.053 135.544C914.989 136.304 913.342 136.684 911.113 136.684V102.94ZM984.659 131.06C984.659 134.809 982.531 136.684 978.275 136.684V131.82C978.731 131.364 979.263 130.68 979.871 129.768L979.567 129.464C978.047 131.643 976.122 133.391 973.791 134.708C971.511 136.025 969.003 136.684 966.267 136.684C963.531 136.684 961.099 136.101 958.971 134.936C956.894 133.771 955.272 132.149 954.107 130.072C952.992 127.995 952.435 125.664 952.435 123.08V102.18C952.435 100.508 952.992 99.292 954.107 98.532C955.222 97.7213 956.894 97.316 959.123 97.316V122.776C959.123 125.208 959.832 127.159 961.251 128.628C962.72 130.097 964.874 130.832 967.711 130.832C969.586 130.832 971.308 130.452 972.879 129.692C974.45 128.881 975.691 127.817 976.603 126.5C977.566 125.132 978.047 123.663 978.047 122.092V102.18C978.047 100.508 978.579 99.292 979.643 98.532C980.758 97.7213 982.43 97.316 984.659 97.316V131.06ZM1010.4 136.684C1006.8 136.684 1004.12 135.671 1002.35 133.644C1000.57 131.567 999.685 128.856 999.685 125.512V103.32H992.617C992.617 101.597 992.997 100.28 993.757 99.368C994.517 98.456 995.556 98 996.873 98H999.761V90.78C999.761 89.108 1000.29 87.892 1001.36 87.132C1002.47 86.3213 1004.12 85.916 1006.3 85.916V98H1016.41C1016.41 101.547 1014.81 103.32 1011.62 103.32H1006.37V125.284C1006.37 127.311 1006.73 128.755 1007.44 129.616C1008.2 130.427 1009.54 130.832 1011.47 130.832C1013.24 130.832 1014.91 130.376 1016.48 129.464C1017.14 130.123 1017.47 131.009 1017.47 132.124C1017.47 133.34 1016.84 134.404 1015.57 135.316C1014.3 136.228 1012.58 136.684 1010.4 136.684ZM1040.76 136.684C1037.67 136.684 1034.91 136.101 1032.48 134.936C1030.04 133.72 1028.14 132.073 1026.78 129.996C1025.41 127.868 1024.72 125.487 1024.72 122.852V111.604C1024.72 108.919 1025.43 106.487 1026.85 104.308C1028.32 102.129 1030.27 100.432 1032.7 99.216C1035.19 97.9493 1037.87 97.316 1040.76 97.316C1043.65 97.316 1046.28 97.924 1048.66 99.14C1051.1 100.356 1053 102.028 1054.36 104.156C1055.78 106.284 1056.49 108.691 1056.49 111.376V116.24C1056.49 117.051 1056.19 117.735 1055.58 118.292C1054.97 118.849 1054.24 119.128 1053.38 119.128H1031.18V122.548C1031.18 125.132 1031.99 127.209 1033.62 128.78C1035.29 130.351 1037.67 131.136 1040.76 131.136C1043.85 131.136 1046.21 130.452 1047.83 129.084C1049.45 127.716 1050.26 125.867 1050.26 123.536C1051.78 123.435 1053.05 123.739 1054.06 124.448C1055.12 125.107 1055.66 126.095 1055.66 127.412C1055.66 129.033 1054.95 130.553 1053.53 131.972C1052.16 133.391 1050.34 134.531 1048.06 135.392C1045.78 136.253 1043.34 136.684 1040.76 136.684ZM1050.34 113.96V111.376C1050.34 108.843 1049.45 106.791 1047.68 105.22C1045.95 103.599 1043.65 102.788 1040.76 102.788C1037.87 102.788 1035.54 103.599 1033.77 105.22C1032.05 106.791 1031.18 108.843 1031.18 111.376V113.96H1050.34ZM466.32 170.144C466.32 169.181 466.675 168.396 467.384 167.788C468.093 167.129 468.955 166.8 469.968 166.8H503.636C503.636 168.928 503.205 170.499 502.344 171.512C501.483 172.525 500.14 173.032 498.316 173.032H473.464V190.056H494.744C494.744 192.184 494.313 193.755 493.452 194.768C492.591 195.781 491.273 196.288 489.5 196.288H473.464V213.768H499.912C501.685 213.768 503.003 214.275 503.864 215.288C504.725 216.301 505.156 217.872 505.156 220H469.968C468.955 220 468.093 219.696 467.384 219.088C466.675 218.429 466.32 217.619 466.32 216.656V170.144ZM513.894 186.94C513.894 183.191 516.022 181.316 520.278 181.316V186.18C519.822 186.636 519.29 187.32 518.682 188.232L518.986 188.536C520.506 186.408 522.482 184.685 524.914 183.368C527.346 182 529.981 181.316 532.818 181.316C536.922 181.316 540.165 182.532 542.546 184.964C544.928 187.396 546.118 190.537 546.118 194.388V215.82C546.118 217.492 545.561 218.733 544.446 219.544C543.382 220.304 541.736 220.684 539.506 220.684V195.072C539.506 192.64 538.822 190.715 537.454 189.296C536.086 187.877 534.009 187.168 531.222 187.168C529.348 187.168 527.574 187.573 525.902 188.384C524.281 189.144 522.964 190.208 521.95 191.576C520.988 192.893 520.506 194.337 520.506 195.908V215.82C520.506 217.492 519.949 218.733 518.834 219.544C517.77 220.304 516.124 220.684 513.894 220.684V186.94ZM569.884 220.684C565.527 220.684 561.98 219.493 559.244 217.112C556.559 214.68 555.216 211.463 555.216 207.46V194.464C555.216 191.88 555.85 189.6 557.116 187.624C558.383 185.597 560.131 184.052 562.36 182.988C564.64 181.873 567.25 181.316 570.188 181.316C572.57 181.316 574.774 181.823 576.8 182.836C578.827 183.799 580.6 185.091 582.12 186.712L582.348 186.332C581.994 185.825 581.462 185.268 580.752 184.66V171.284C580.752 169.612 581.31 168.345 582.424 167.484C583.539 166.572 585.211 166.116 587.44 166.116V215.288C587.44 216.96 586.934 218.277 585.92 219.24C584.958 220.203 583.387 220.684 581.208 220.684V216.428C581.918 215.516 582.399 214.857 582.652 214.452L582.424 214.148C580.803 216.175 579.004 217.771 577.028 218.936C575.052 220.101 572.671 220.684 569.884 220.684ZM571.328 214.832C574.014 214.832 576.268 214.148 578.092 212.78C579.916 211.361 580.828 209.613 580.828 207.536V194.388C580.828 192.361 579.967 190.664 578.244 189.296C576.522 187.877 574.191 187.168 571.252 187.168C568.263 187.168 565.932 187.852 564.26 189.22C562.639 190.537 561.828 192.387 561.828 194.768V207.156C561.828 209.639 562.639 211.539 564.26 212.856C565.932 214.173 568.288 214.832 571.328 214.832ZM598.058 186.712C598.058 185.04 598.565 183.723 599.578 182.76C600.642 181.797 602.238 181.316 604.366 181.316V185.572L602.846 187.548L603.074 187.852C604.645 185.825 606.444 184.229 608.47 183.064C610.497 181.899 612.904 181.316 615.69 181.316C620.048 181.316 623.569 182.532 626.254 184.964C628.94 187.345 630.282 190.537 630.282 194.54V207.536C630.282 211.539 628.889 214.731 626.102 217.112C623.316 219.493 619.693 220.684 615.234 220.684C612.853 220.684 610.649 220.203 608.622 219.24C606.646 218.227 604.898 216.909 603.378 215.288L603.15 215.668C603.505 216.175 604.037 216.732 604.746 217.34V230.716C604.746 234.161 602.517 235.884 598.058 235.884V186.712ZM614.246 214.832C617.236 214.832 619.566 214.173 621.238 212.856C622.91 211.488 623.746 209.613 623.746 207.232V194.844C623.746 192.361 622.91 190.461 621.238 189.144C619.566 187.827 617.21 187.168 614.17 187.168C611.485 187.168 609.23 187.877 607.406 189.296C605.582 190.664 604.67 192.387 604.67 194.464V207.612C604.67 209.639 605.532 211.361 607.254 212.78C608.977 214.148 611.308 214.832 614.246 214.832ZM653.467 220.684C650.376 220.684 647.564 220.101 645.031 218.936C642.548 217.771 640.598 216.2 639.179 214.224C637.811 212.197 637.127 209.943 637.127 207.46V194.996C637.127 192.463 637.811 190.157 639.179 188.08C640.598 186.003 642.548 184.356 645.031 183.14C647.514 181.924 650.326 181.316 653.467 181.316C656.608 181.316 659.42 181.924 661.903 183.14C664.436 184.356 666.387 186.003 667.755 188.08C669.174 190.157 669.883 192.463 669.883 194.996V207.46C669.883 209.943 669.174 212.197 667.755 214.224C666.336 216.2 664.386 217.771 661.903 218.936C659.42 220.101 656.608 220.684 653.467 220.684ZM653.467 214.984C656.507 214.984 658.914 214.275 660.687 212.856C662.511 211.387 663.423 209.487 663.423 207.156V195.224C663.423 192.792 662.511 190.816 660.687 189.296C658.914 187.776 656.507 187.016 653.467 187.016C650.478 187.016 648.071 187.776 646.247 189.296C644.423 190.816 643.511 192.792 643.511 195.224V207.156C643.511 209.487 644.398 211.387 646.171 212.856C647.995 214.275 650.427 214.984 653.467 214.984ZM681.746 175.616C680.327 175.616 679.137 175.16 678.174 174.248C677.211 173.336 676.73 172.196 676.73 170.828C676.73 169.46 677.211 168.345 678.174 167.484C679.137 166.572 680.327 166.116 681.746 166.116C683.114 166.116 684.279 166.572 685.242 167.484C686.205 168.345 686.686 169.46 686.686 170.828C686.686 172.196 686.205 173.336 685.242 174.248C684.279 175.16 683.114 175.616 681.746 175.616ZM678.402 186.18C678.402 184.508 678.934 183.292 679.998 182.532C681.113 181.721 682.785 181.316 685.014 181.316V215.82C685.014 217.492 684.457 218.733 683.342 219.544C682.278 220.304 680.631 220.684 678.402 220.684V186.18ZM697.363 186.94C697.363 183.191 699.491 181.316 703.747 181.316V186.18C703.291 186.636 702.759 187.32 702.151 188.232L702.455 188.536C703.975 186.408 705.951 184.685 708.383 183.368C710.815 182 713.45 181.316 716.287 181.316C720.391 181.316 723.634 182.532 726.015 184.964C728.396 187.396 729.587 190.537 729.587 194.388V215.82C729.587 217.492 729.03 218.733 727.915 219.544C726.851 220.304 725.204 220.684 722.975 220.684V195.072C722.975 192.64 722.291 190.715 720.923 189.296C719.555 187.877 717.478 187.168 714.691 187.168C712.816 187.168 711.043 187.573 709.371 188.384C707.75 189.144 706.432 190.208 705.419 191.576C704.456 192.893 703.975 194.337 703.975 195.908V215.82C703.975 217.492 703.418 218.733 702.303 219.544C701.239 220.304 699.592 220.684 697.363 220.684V186.94ZM754.569 220.684C750.972 220.684 748.286 219.671 746.513 217.644C744.74 215.567 743.853 212.856 743.853 209.512V187.32H736.785C736.785 185.597 737.165 184.28 737.925 183.368C738.685 182.456 739.724 182 741.041 182H743.929V174.78C743.929 173.108 744.461 171.892 745.525 171.132C746.64 170.321 748.286 169.916 750.465 169.916V182H760.573C760.573 185.547 758.977 187.32 755.785 187.32H750.541V209.284C750.541 211.311 750.896 212.755 751.605 213.616C752.365 214.427 753.708 214.832 755.633 214.832C757.406 214.832 759.078 214.376 760.649 213.464C761.308 214.123 761.637 215.009 761.637 216.124C761.637 217.34 761.004 218.404 759.737 219.316C758.47 220.228 756.748 220.684 754.569 220.684Z" fill="#F5F5F5"/>
</g>
</g>
<defs>
<filter id="filter0_d_7_151" x="94.75" y="173.572" width="331.75" height="320.606" filterUnits="userSpaceOnUse" color-interpolation-filters="sRGB">
<feFlood flood-opacity="0" result="BackgroundImageFix"/>
<feColorMatrix in="SourceAlpha" type="matrix" values="0 0 0 0 0 0 0 0 0 0 0 0 0 0 0 0 0 0 127 0" result="hardAlpha"/>
<feOffset dy="8"/>
<feGaussianBlur stdDeviation="4"/>
<feComposite in2="hardAlpha" operator="out"/>
<feColorMatrix type="matrix" values="0 0 0 0 0 0 0 0 0 0 0 0 0 0 0 0 0 0 0.25 0"/>
<feBlend mode="normal" in2="BackgroundImageFix" result="effect1_dropShadow_7_151"/>
<feBlend mode="normal" in="SourceGraphic" in2="effect1_dropShadow_7_151" result="shape"/>
</filter>
<filter id="filter1_d_7_151" x="461.32" y="82.116" width="600.172" height="163.768" filterUnits="userSpaceOnUse" color-interpolation-filters="sRGB">
<feFlood flood-opacity="0" result="BackgroundImageFix"/>
<feColorMatrix in="SourceAlpha" type="matrix" values="0 0 0 0 0 0 0 0 0 0 0 0 0 0 0 0 0 0 127 0" result="hardAlpha"/>
<feOffset dy="5"/>
<feGaussianBlur stdDeviation="2.5"/>
<feComposite in2="hardAlpha" operator="out"/>
<feColorMatrix type="matrix" values="0 0 0 0 0 0 0 0 0 0 0 0 0 0 0 0 0 0 0.25 0"/>
<feBlend mode="normal" in2="BackgroundImageFix" result="effect1_dropShadow_7_151"/>
<feBlend mode="normal" in="SourceGraphic" in2="effect1_dropShadow_7_151" result="shape"/>
</filter>
</defs>
</svg>
